<?xml version="1.0" encoding="utf-8"?>
<!-- Generator: Adobe Illustrator 19.1.0, SVG Export Plug-In . SVG Version: 6.00 Build 0)  -->
<svg version="1.1" id="Layer_1" xmlns="http://www.w3.org/2000/svg" xmlns:xlink="http://www.w3.org/1999/xlink" x="0px" y="0px"
	 viewBox="0 0 50 50" style="enable-background:new 0 0 50 50;" xml:space="preserve">
<style type="text/css">
	.st0{fill:none;stroke:#231F20;stroke-width:1.25;stroke-linecap:round;stroke-linejoin:round;stroke-miterlimit:10;}
	.st1{fill:#231F20;}
	.st2{fill:none;stroke:#231F20;stroke-width:1.25;stroke-linejoin:round;stroke-miterlimit:10;}
</style>
<g>
	<path class="st0" d="M14.8,26.6c0,0,1.7,4.6,2,5.8c0.3,1.2-0.8,3.9-3.6,3.1S9.6,30,9.6,26.6s2-5.9,2.4-6.8"/>
	<path class="st0" d="M9.6,27.8c0,0-2.7,11.3,2.8,16.3c2.1,2,8.3,1.1,10.6,1.1s8.5,0.9,10.6-1.1c5.5-5,2.8-16.3,2.8-16.3"/>
	<line class="st0" x1="4.4" y1="12.2" x2="7.1" y2="15.1"/>
	<path class="st0" d="M12.8,44.4c0,0-2.2,2.4-3.3,3.5c-1.1,1.1,1.3,1.7,3.3,1.5s4.8,0,6.1-4"/>
	<path class="st0" d="M29.9,23.7c7-4.7,3.6-8,1.8-13.8c5.4-0.5,12.4-3.1,15.9-9.1C38.3,0,28.7,7.1,28.7,7.1s-6.3-3.1-12,0.6
		c0,0-1.6-1.2-4.7-0.2s-8.9,4.2-11.2,10c4.8-0.7,11.9-4.6,13.5-7.7c-1.8,5.8-5.2,9.1,1.8,13.8"/>
	<path class="st0" d="M31.2,26.6c0,0-1.7,4.6-2,5.8c-0.3,1.2,0.8,3.9,3.6,3.1s3.6-5.4,3.6-8.9s-2-5.9-2.4-6.8"/>
	<path class="st0" d="M33.2,44.4c0,0,2.2,2.4,3.3,3.5c1.1,1.1-1.3,1.7-3.3,1.5s-4.8,0-6.1-4"/>
	<path class="st0" d="M40.9,1.6c0,0,2.8,2.1,1.4,4.6"/>
	<circle class="st1" cx="17.6" cy="16" r="1.4"/>
	<circle class="st1" cx="28.7" cy="16" r="1.4"/>
	<circle class="st1" cx="23" cy="18.4" r="0.9"/>
	<polyline class="st2" points="37.1,36.6 40.1,36.6 40.1,33.5 43.2,32.2 43.2,26.6 49.1,22.7 49.1,14.6 38.7,22.4 38.7,30.2 
		37.1,30.5 	"/>
</g>
</svg>
